####
#
# OBJ File Generated by Meshlab
#
####
# Object cube.obj
#
# Vertices: 8
# Faces: 12
#
####
vn 0.000000 1.000000 0.000000
v -1.000000 0.000000 -1.000000
vn 0.000000 1.000000 0.000000
v 1.000000 0.000000 -1.000000
vn 0.000000 1.000000 0.000000
v -1.000000 0.000000 1.000000
vn 0.000000 1.000000 0.000000
v 1.000000 0.000000 1.000000
vn 0.000000 1.000000 0.000000
v 0.000000 0.300000 0.000000 
# 8 vertices, 0 vertices normals

f 5//5 1//1 3//3
f 5//5 3//3 4//4
f 5//5 4//4 2//2
f 5//5 2//2 1//1
# 12 faces, 0 coords texture

# End of File
